<svg width="66" height="51" viewBox="0 0 66 51" fill="none" xmlns="http://www.w3.org/2000/svg">
<path d="M28.3 44L13.85 27.3V44H3.7V9.6H13.35L27.8 26.55V9.6H37.95V44H28.3Z" fill="#1D63FF"/>
<path d="M61.35 20.15C61.35 22.25 60.7833 24.15 59.65 25.85C58.5167 27.55 56.8667 28.8 54.7 29.6L62.35 44H49.95L43.85 31.45H39.75V44H28.7V9.6H49.75C52.2167 9.6 54.3167 10.0833 56.05 11.05C57.8167 11.9833 59.1333 13.2667 60 14.9C60.9 16.5 61.35 18.25 61.35 20.15ZM50.1 20.6C50.1 19.7 49.8 18.95 49.2 18.35C48.6 17.75 47.8667 17.45 47 17.45H39.75V23.8H47C47.8667 23.8 48.6 23.5 49.2 22.9C49.8 22.2667 50.1 21.5 50.1 20.6Z" fill="#1D63FF"/>
</svg>
